<?xml version="1.0" standalone="no"?>
<!DOCTYPE svg PUBLIC "-//W3C//DTD SVG 20010904//EN"
 "http://www.w3.org/TR/2001/REC-SVG-20010904/DTD/svg10.dtd">
<svg version="1.0" xmlns="http://www.w3.org/2000/svg"
 width="302.000000pt" height="291.000000pt" viewBox="0 0 302.000000 291.000000"
 preserveAspectRatio="xMidYMid meet">

<g transform="translate(0.000000,291.000000) scale(0.100000,-0.100000)"
fill="#000000" stroke="none">
<path d="M1124 1427 c-45 -67 -57 -103 -62 -177 -3 -59 0 -86 16 -129 35 -89
78 -141 96 -113 2 4 -12 33 -31 64 -61 98 -58 230 7 329 16 23 27 46 24 51
-10 16 -30 7 -50 -25z"/>
<path d="M1626 1452 c-2 -4 12 -33 31 -64 61 -99 57 -238 -9 -329 -27 -38 -30
-59 -6 -59 14 0 33 24 65 85 37 70 43 179 15 254 -35 89 -78 141 -96 113z"/>
<path d="M1207 1372 c-50 -56 -62 -169 -24 -242 22 -45 50 -70 63 -57 4 4 -5
29 -19 56 -36 65 -37 139 -2 200 14 23 25 47 25 52 0 15 -26 10 -43 -9z"/>
<path d="M1550 1381 c0 -5 11 -29 25 -52 35 -61 34 -135 -2 -200 -14 -27 -23
-52 -19 -56 13 -13 41 12 64 57 37 73 25 186 -25 242 -17 19 -43 24 -43 9z"/>
<path d="M1284 1309 c-29 -32 -27 -131 3 -161 17 -16 26 -19 34 -11 8 8 7 17
-5 34 -20 30 -21 88 0 117 27 39 0 57 -32 21z"/>
<path d="M1475 1320 c-3 -5 1 -20 9 -32 21 -29 20 -87 0 -117 -12 -17 -13 -26
-5 -34 8 -8 17 -5 34 11 30 30 32 129 3 161 -21 23 -32 26 -41 11z"/>
</g>
</svg>
